<?xml version="1.0" encoding="UTF-8" standalone="no"?>
<svg viewBox="0 0 319.09534 500.62875" xmlns="http://www.w3.org/2000/svg">
<path fill="white" d="m134.13232,490.89952-6.22262-9.72924 .54695-21.96357c.96761-38.85638-6.43624-64.37024-25.74979-88.73439-5.12818-6.46923-10.41843-12.6077-11.75612-13.64107-4.0828-3.15401-18.8654-27.06289-26.90624-43.51722-4.18157-8.557-10.01326-23.54868-12.95927-33.31485-9.35923-31.0262-15.00525-52.12313-15.00525-56.06852 0-8.28651-11.65568-28.46857-22.51069-38.97774-5.96752-5.77743-11.68796-12.70829-12.71209-15.40194-1.59737-4.2014-1.16559-5.54298 3.03767-9.43844 3.82251-3.54257 6.9127-4.54089 14.05584-4.54089h9.15615l-3.8616-6.2482c-2.12388-3.4365-3.8616-7.88247-3.8616-9.87992 0-4.8471 6.97409-11.00823 14.18502-12.5315 13.40024-2.83075 20.32069-21.53757 9.0172-24.37457-5.43552-1.36423-10.99827-7.27452-9.35272-9.93706 2.88429-4.66688 12.65477-7.86576 20.45296-6.69635 6.82571,1.02358 8.20156.62549 10.61913-3.07251 5.4668-8.36222 5.80009-12.61152 1.35988-17.33791-3.56466-3.79441-3.80038-4.8562-1.65253-7.44419 1.74553-2.10323 4.31559-2.72474 8.47574-2.04965 7.1386,1.15844 9.72807-2.74703 4.30025-6.48572-4.96938-3.42292-1.94929-7.43719 5.89196-7.83155 6.34963-.31934 9.60654-4.98823 5.32538-7.63413-2.53086-1.56415 2.99226-8.33695 6.79866-8.33695 3.27342,0 3.15403-1.76257-.38431-5.67238-2.62909-2.90512-2.47135-3.50285 1.81391-6.87364 2.58138-2.03051 5.52612-5.88203 6.54388-8.55893 2.22122-5.84223 3.69318-6.01477 9.86909-1.1568 2.59428,2.04066 5.98988,3.71029 7.54575,3.71029s3.41269,1.8394 4.12622,4.08755 2.40395,5.19417 3.75648,6.5467 1.93535,3.82415 1.29514,5.4925c-.73375,1.91212-.42363,2.57578.83899,1.79544 3.78703-2.34052 7.90325.93218 7.90325,6.2837 0,6.17207 2.22634,7.93841 9.73668,7.72488 5.04839-.14354 5.39315.24609 4.2709,4.82694-1.87559,7.65583-1.459,11.8337 1.47224,14.76494 2.33442,2.33443 3.43784,2.11692 8.59207-1.69376 5.84104-4.31847 5.94648-4.32729 8.58571-.71793 1.46963,2.00983 2.109,4.93042 1.42084,6.49019-2.64416,5.99323-2.84799,14.45692-.39734,16.49948 17.08086,14.23645 18.5405,15.07293 22.59168,12.94656 2.2107-1.16035 6.76167-4.49175 10.11325-7.40311 11.81956-10.26712 21.49647-5.77786 29.26951,13.57855 7.46051,18.57818 13.09269,24.49698 28.04589,29.47308 11.8255,3.93527 12.58266,3.96871 23.17611,1.02347 17.04408-4.73868 20.99181-1.13931 27.24135,24.83735 9.6614,40.15835 9.15758,79.82691-1.73177,136.35321-9.35241,48.54799-14.6525,68.61601-21.85477,82.74972-7.5754,14.86597-12.9295,19.10064-26.77493,21.1769-22.89963,3.434-32.37847,30.98409-11.27704,32.77649 14.53991,1.23505 13.01921,12.40154-3.87388,28.44592-24.25488,23.03634-49.48062,27.95662-57.89447,11.29231-3.71698-7.3618-9.87662-14.11609-12.87329-14.11609-1.28023,0-3.66591,4.80019-5.30152,10.66709-5.94619,21.32902-8.59137,26.53645-16.32523,32.13885-4.12111,2.98531-8.9503,5.42786-10.7315,5.42786-1.87863,0-5.85156-4.0855-9.46117-9.72924zm11.40126,2.19916c0-1.08055-.83481-1.44868-1.85514-.81808s-1.85515,1.51469-1.85515,1.96464 .83482.81808 1.85515.81808 1.85514-.88409 1.85514-1.96464zm15.26312-12.48882c1.9411-4.37826 5.96446-17.73531 8.94079-29.68233s9.06327-34.45283 13.52653-50.01286 7.58322-28.29098 6.93319-28.29098c-2.62946,0-24.77147,66.00824-28.09799,83.76377-3.12694,16.69043-5.40113,23.15641-4.14187,11.77624 1.61423-14.58816 16.78484-67.1921 24.878-86.26428 7.69857-18.14221 20.46435-69.43039 23.71468-95.27659 1.893-15.05305 1.43087-97.9658-.74167-133.06547-1.42294-22.98909 1.03782-48.07465 4.71585-48.07465 .82255,0 .64481,3.08114-.39498,6.84698-2.37447,8.59958-2.89707,40.78357-1.01847,62.72099 4.70031,54.88807 1.96795,113.72323-7.10775,153.04952-.778,3.37118-.58905,3.87786.69182,1.85514 2.63961-4.16838 9.21423-35.01727 9.42557-44.22578 .1016-4.42776.6437-8.79304 1.20464-9.70065 1.93679-3.13381 1.06602-80.11585-1.14928-101.60262-2.23243-21.65309-1.4058-57.57183 1.56257-67.89512 .86102-2.99451 2.67972-5.81596 4.04154-6.2699 1.47956-.49319 1.95473.01811 1.18073,1.27048-.76516,1.23805-.02746,2.09582 1.80244,2.09582 2.45901,0 2.19471.75228-1.28189,3.64857-2.40877,2.00671-3.50303,3.67634-2.43169,3.71029s3.14589-.9818 4.61008-2.25721 .58763.0805-1.9479,3.01314l-4.61008,5.33209 4.63787-1.31096c4.50995-1.2748 4.48438-1.17472-.92758,3.62864-3.06099,2.71678-4.31321,4.53532-2.78272,4.04122s4.45235-1.4832 6.49301-2.19798 1.22559.30105-1.81129,2.25739c-4.74128,3.05432-5.56057,4.78582-5.79751,12.2525-.15177,4.78253-.05397,8.69551.21735,8.69551s4.13239-1.65129 8.58023-3.66955 10.17399-3.61323 12.72482-3.54441c3.04713.08222 1.59733.96139-4.22693,2.56325-10.63021,2.92365-18.03482,7.47439-18.03482,11.08386 0,2.04325 2.22773,1.61742 9.88995-1.89046 5.43949-2.49027 13.99635-4.95336 19.01524-5.47353 8.64084-.89555 8.50943-.80358-2.47547,1.73242-11.64209,2.68772-26.42972,9.69614-26.42972,12.52605 0,1.98507-.68436,2.16038 12.05845-3.08888 6.12198-2.52189 14.47013-4.50687 18.55145-4.41108l7.42059.17417-8.75542,1.47507c-11.39479,1.91974-30.4788,10.62019-28.20862,12.86038 1.03728,1.02358 5.75288.29537 11.91957-1.8407 5.61182-1.94386 12.29034-3.50661 14.84117-3.47277 2.62343.0348.28465,1.2321-5.38462,2.75655-13.83694,3.72072-19.50144,6.70541-20.26663,10.67867-.5311,2.75776-.01878,3.05463 2.76004,1.59937 4.92833-2.58095 29.20748-7.82593 35.31588-7.62923 2.85956.09208-1.01165,1.2914-8.6027,2.66515-15.52474,2.80951-29.79402,7.74579-29.79402,10.30688 0,2.17791-.23206,2.1982 12.35771-1.08101 5.88878-1.53384 17.3775-2.65925 25.59876-2.50762l14.91519.2751-18.63457,1.32231c-20.21298,1.43432-32.38194,4.78062-32.38194,8.9046 0,1.92475 1.34107,2.27175 5.10165,1.32003 10.13713-2.56548 25.66157-4.65025 32.92884-4.42199 5.43964.17084 4.13017.61722-4.90523,1.6721-6.7792.79146-17.00569,2.41056-22.72554,3.598-9.20174,1.91026-10.39972,2.68093-10.39972,6.6902 0,4.48763.06465,4.50422 6.71956,1.72361 4.66894-1.95081 12.1703-2.70526 24.58068-2.47226l17.86112.33536-18.55145,1.1634c-19.69802,1.2353-30.60991,4.28347-30.60991,8.55068 0,3.25791 1.65421,3.2619 9.51297.02287 3.44066-1.41811 12.51689-3.05492 20.16936-3.63736l13.9136-1.059-14.73828,2.59079c-16.70611,2.9367-28.85765,7.76178-28.85765,11.45868 0,3.01396-.99443,3.04389 10.03435-.30181 8.52095-2.58493 30.73981-3.96035 28.5466-1.76716-.54753.54753-6.6771,1.43245-13.62126,1.96649s-15.4009,2.13051-18.79272,3.54771c-7.59801,3.17463-8.37181,7.38791-1.06532,5.80044 9.95444-2.16278 33.00329-3.22387 37.98714-1.74879 3.45799,1.02347-.65046,1.5528-12.98603,1.67316-18.73624.18281-28.24761,2.52305-28.24761,6.95027 0,2.19577 1.71129,2.18493 11.48394-.07278 8.75735-2.02313 15.25418-2.25452 27.3634-.97456l15.87946,1.67849-19.9213.21804c-21.14564.23145-34.80383,2.7715-34.80808,6.47336-.00191,1.65368 6.24705,2.1906 23.65311,2.03232l23.65568-.21513-23.18932,1.34799c-12.75413.74139-23.39803,1.4643-23.65311,1.60648s-.46378,2.30211-.46378,4.79986c0,4.26986.34275,4.42187 5.73316,2.54277 7.70937-2.68751 41.94577-1.02051 44.9128,2.18685 1.78613,1.93082 1.49295,2.14486-1.4846,1.08385-7.3176-2.60752-33.36524-3.38241-41.27699-1.22796-5.97947,1.62828-7.88437,3.05637-7.88437,5.91081 0,2.69091.92544,3.50708 3.2465,2.86318 7.51683-2.08526 24.18129-2.80825 31.07369-1.34812 6.33611,1.34229 5.08218,1.60322-8.58005,1.78537-20.56338.27418-27.59583,1.68785-27.59338,5.54689 .00165,2.59932 2.8767,3.02534 20.87039,3.09247 12.26383.04577 23.07811,1.02334 26.22742,2.37084 8.17682,3.49868 4.86898,4.24691-5.27655,1.19357-9.12177-2.74525-29.97747-3.60134-37.64909-1.54541-2.29574.61522-4.1756,2.48216-4.17746,4.14873-.0028,2.51402 1.81411,2.93978 10.66709,2.49957 5.86876-.29183 15.67936.28499 21.80134,1.28179 10.16527,1.65515 9.65663,1.72546-5.86341.81054-21.06648-1.24189-28.45679.12859-28.45679,5.27713 0,2.42551.90405,3.41445 2.54554,2.78455 6.30646-2.42 19.50528-3.09407 27.1368-1.38585l8.34815,1.86862-10.2033-.81497c-10.70935-.85537-23.29327,1.20152-26.40831,4.31657-1.21362,1.21362 4.86246,1.86888 17.89028,1.92933 10.85043.05033 20.9922.79898 22.53726,1.66364 1.62397.90882-4.2263,1.23573-13.86627.77484-19.97627-.95508-29.83529.53775-29.83529,4.5176 0,2.21413 1.26979,2.56717 5.71889,1.58997 6.17755-1.35682 29.52888,2.32572 29.52888,4.65673 0,.78111-3.65996.6396-8.13324-.31447s-12.60492-1.47895-18.07031-1.16646c-8.02927.45912-10.06565,1.24395-10.60687,4.08806-.59099,3.1055.15584,3.38586 6.34406,2.38165 6.42966-1.04339 31.71734,3.66919 29.82785,5.55869-.42473.42472-6.16032-.22058-12.74576-1.43399-13.05525-2.40551-25.57379-1.05847-25.57379,2.75183 0,1.76137 1.86527,2.07915 6.95679,1.18525 6.91311-1.21369 29.33344,3.56162 35.5971,7.58187 2.37529,1.52454 2.3959,1.70468.11446.99996-25.3806-7.83977-40.81688-8.13682-44.71111-.8604-1.99235,3.72276-1.76009,3.84899 5.07911,2.76033 4.59024-.73069 12.16924.17648 21.08054,2.52318 7.65248,2.01523 10.57433,3.20959 6.49301,2.65416-19.69484-2.68031-26.37329-2.91397-31.07369-1.08711-8.78541,3.41452-5.64692,5.29102 10.24434,6.12509 15.82079.83039 29.09488,5.42571 30.72576,10.63689 .55079,1.75998-1.03115,1.30882-4.78611-1.36492-6.94227-4.94335-21.31409-8.1624-33.05226-7.40318-10.4426.67542-13.97339,5.21162-4.0565,5.21162 6.38296,0 27.75159,6.22967 32.92604,9.59904 2.14748,1.39834 1.93573,1.54066-.92758.62342-25.91108-8.30042-39.88563-10.25706-39.88563-5.5846 0,1.9836 1.99779,2.77501 6.95679,2.75584 6.68439-.02582 32.72528,7.34185 31.23103,8.8361-.3995.39949-6.32126-1.00176-13.15949-3.11386-12.74061-3.93518-26.88348-5.10646-26.88348-2.22644 0,.8876 5.19513,2.63587 11.54476,3.88508 10.73582,2.11214 31.30011,10.91787 25.94804,11.11109-1.31606.04751-5.53205-1.51514-9.36884-3.47252-7.21582-3.68122-26.11025-7.88895-28.5775-6.3641-3.48679,2.15494-.81285,4.35755 5.28996,4.35755 6.77218,0 31.62445,10.53616 29.60819,12.55244-.60142.6014-4.21471-.66038-8.02954-2.80396-8.78306-4.93528-23.50655-8.69451-27.7202-7.07757-2.76109,1.05951-2.83322,1.48911-.49801,2.96592 1.50188.94981 4.86302,1.73973 7.46917,1.75535 4.24182.02544 22.16116,9.71919 22.16116,11.98844 0,.50098-4.77717-1.56766-10.61594-4.597-11.58355-6.00993-21.73435-7.18969-23.44756-2.72517-.78104,2.03534.23215,2.78272 3.7724,2.78272 5.5606,0 21.01537,7.22013 21.01537,9.81793 0,.95681-1.93868.46939-4.30821-1.08318s-7.86142-3.8874-12.20426-5.18855c-6.66598-1.99717-8.15793-1.95193-9.57698.29054-2.61149,4.12681-2.25586,4.52455 6.14663,6.87443 4.33641,1.21274 9.97141,3.89948 12.52224,5.9705 4.99423,4.05487 4.06909,3.81953-9.95607-2.53266-6.80176-3.0806-12.34334-3.00378-12.27402.17016 .01741.79726 4.63386,3.44207 10.25878,5.87738s9.81459,4.84029 9.3104,5.34448-3.78587-.44478-7.29264-2.10885c-7.0692-3.35455-14.16335-3.98439-14.16335-1.25747 0,.97246 2.84596,3.11861 6.32436,4.7692s7.86116,4.78758 9.73952,6.97103l3.41515,3.96992-5.56544-3.47756c-3.06099-1.91268-7.38398-4.64991-9.60665-6.08273-3.63244-2.34164-4.24889-2.21707-6.09448,1.23146-1.69953,3.17555-1.51285,3.83659 1.08338,3.83659 3.87242,0 15.54533,8.68964 15.54533,11.57237 0,1.1593-2.29575-.04161-5.10165-2.6687s-6.90974-5.32169-9.1196-5.98799c-7.16542-2.16045-6.32259,2.06589 1.43588,7.20021 4.1582,2.75178 7.02097,5.54262 6.3617,6.20188s-1.77938.3043-2.48914-.78882-3.25845-3.02461-5.66374-4.29222c-6.49471-3.42274-9.08583.40485-2.98164,4.40447 5.66366,3.71096 4.97627,6.20777-.72825,2.64524-4.51211-2.81784-4.95658-2.45579-6.41731,5.22724-.98725,5.19278-.41505,6.30713 4.83518,9.41609 3.27523,1.93946 7.2072,5.96758 8.73769,8.95138 6.96034,13.56961 16.73448,16.13012 31.46968,8.24408l4.48279-2.39911-6.84536-5.49155c-3.76494-3.02035-6.84536-6.4148-6.84536-7.54323s3.25179,1.12359 7.22622,5.0045c5.5752,5.44405 8.14166,6.76566 11.233,5.78451 2.20373-.69943 3.68775-2.24437 3.29784-3.43321-.70657-2.15434-10.65228-9.5411-14.8892-11.0583-1.22649-.4392-1.76309-1.31018-1.19241-1.93551s5.37085,1.71685 10.66709,5.20482c6.5057,4.28451 9.6295,5.49537 9.6295,3.73259 0-1.43507-3.11564-4.72634-6.92364-7.31395s-6.08885-4.70474-5.06852-4.70474 4.91784,2.08115 8.66114,4.62478 7.94665,4.18708 9.34075,3.65212c3.32182-1.27471 8.29332-9.83985 9.11134-15.69749 .56306-4.03199-.1341-4.71337-5.33673-5.21585-7.39387-.7141-13.49728-7.91127-13.48769-15.90472 .01529-12.7379 12.38655-23.65059 29.96893-26.43563 16.78358-2.65848 25.3718-19.93729 35.78219-71.9909 3.62026-18.10182 7.01393-33.61084 7.5415-34.46447 2.47632-4.00678 6.68038-44.11217 6.80271-64.89563 .15841-26.91366-2.59936-49.73005-8.07217-66.78524-5.03826-15.70101-8.10623-19.21371-15.40639-17.63975-20.3503,4.38765-36.06866,1.80153-47.49676-7.81459-5.77906-4.86275-12.49938-16.64293-16.44285-28.82292-3.56121-10.99939-11.83686-13.95693-19.58371-6.99881-5.30006,4.76045-13.88356,8.8102-21.83505,10.3019-5.20325.97613-8.68287.34084-14.37041-2.62368-4.12761-2.15143-8.99247-3.91168-10.81081-3.91168-3.85243,0-10.28213,6.56588-18.74382,19.14082-3.30774,4.91564-7.39602,9.40796-9.08506,9.98294-15.53506,5.28839-24.38646,10.6858-27.18074,16.57428-1.65397,3.48548-6.29837,8.51522-10.3209,11.17721-8.70397,5.76001-13.936,13.68088-15.73637,23.82359-.72443,4.08132-3.36783,13.68171-5.87421,21.33417-5.90909,18.04168-5.00691,28.90283 4.87918,58.73968 9.82871,29.66369 15.87268,44.51272 30.67971,75.37491 6.75227,14.07371 15.60204,35.36151 19.66614,47.30622l7.38929,21.71765-.83045-20.4066c-.45674-11.22363-2.13745-29.58958-3.73491-40.81321-3.04636-21.40334-3.45696-26.18449-2.13517-24.86272 2.36559,2.36559 9.06007,61.5025 9.2598,81.79802 .12741,12.94845.90921,24.21846 1.73729,25.04447s1.22564-13.31702.88342-31.4289c-.57938-30.66502.43972-39.50156 3.25982-28.26537 .6435,2.56388.75935,7.36407.25746,10.66709s-.14828,7.4664.78576,9.25198 1.01683,3.2465.18391,3.2465-1.61665,8.55686-1.74163,19.01525l-.22724,19.01524 2.38932-18.18224c1.31413-10.00022 3.02092-18.76579 3.79286-19.47904s.77183,2.8773-.00024,7.97895-1.9999,23.46759-2.72853,40.81321-1.46675,26.84164-1.6403,21.10228c-.40539-13.40717-2.14958-22.02986-4.45619-22.02986-1.00195,0-1.43305,1.04352-.958,2.31894s-.08174,10.32446-1.23729,20.10902-1.66362,19.54835-1.12904,21.69736 3.88948,7.22443 7.45531,11.27874c7.52011,8.55032 9.59411,7.88118 15.2728-4.92741zm41.31884-15.22887c-.6306-1.02033-.26247-1.85515.81808-1.85515s1.96464.83482 1.96464,1.85515-.36814,1.85514-.81808,1.85514-1.33404-.83481-1.96464-1.85514zm4.75114-4.20762c-4.45458-5.48758-4.46012-5.53934-.35899-3.34448 2.29107,1.22616 4.63898,3.46298 5.21756,4.97073 1.84296,4.80272-.19299,4.12123-4.85857-1.62625zm-51.32533-6.45947c.55078-9.27323-1.42226-13.39505-3.10809-6.49301-1.60255,6.56115.83669-26.73935 2.61585-35.71156 2.52884-12.75283 8.68334-58.07721 11.8396-87.19185 3.59738-33.184 6.9741-54.63549 8.45607-53.71959 .68349.42242.53708,4.33397-.32536,8.69234s-2.79222,18.77693-4.28841,32.04123c-4.30787,38.1909-10.35819,83.44496-13.0334,97.48505-1.35149,7.09287-1.71943,12.89612-.81762,12.89612s1.64611-1.46093 1.65407-3.2465 3.37649-17.85578 7.48566-35.71156c11.45094-49.75826 14.43112-69.66188 17.3329-115.7606 1.47079-23.36528 2.42699-43.81826 2.1249-45.45107-1.05139-5.68257-1.62163-38.3444-1.00731-57.69552 .48134-15.16214.96106-10.02298 2.16458,23.18933 1.9565,53.99055-3.14381,132.73892-10.45327,161.39766-4.68836,18.38197-17.67698,77.05881-17.86338,80.69884-.22335,4.36112-.33135,4.30576-1.81007-.92757-1.37598-4.86977-1.46705-4.63788-.7285,1.85515 .46423,4.08132.91272,8.6728.99664,10.2033s1.67845-2.22618 3.54341-8.34816 7.96692-24.07051 13.55994-39.88563 10.77208-32.51143 11.50902-37.10292 3.02343-15.02668 5.0811-23.18932c9.70393-38.49483 10.93755-49.67908 10.53808-95.54001-.91047-104.5264-.67652-121.43102 1.73315-125.22233 2.01506-3.17047 2.17648-2.36073 1.10945,5.56544-.68679,5.10165-.94069,28.47649-.56419,51.94408 1.41003,87.89168.6366,115.31192-3.76757,133.57049-2.21503,9.18297-6.15716,26.7141-8.76028,38.95806-4.62607,21.75893-9.2061,36.84154-24.67222,81.24858-4.19197,12.03615-8.40958,26.22801-9.37248,31.53748l-1.75074,9.65356 .57847-9.73951zm81.82196-8.96704c-5.53805-4.63658-5.54084-4.64871-.56584-2.46472 2.74977,1.20714 5.43673,3.33395 5.97099,4.72624 1.25674,3.27498 1.15884,3.23402-5.40515-2.26152zm-57.50953-4.48277c-.6306-1.02033-.26246-1.85515.81808-1.85515s1.96464.83482 1.96464,1.85515-.36813,1.85515-.81808,1.85515-1.33404-.83482-1.96464-1.85515zm59.36468-1.85515c-.6306-1.02033-.26247-1.85514.81808-1.85514s1.96464.83481 1.96464,1.85514-.36814,1.85515-.81809,1.85515-1.33403-.83482-1.96463-1.85515zm-66.35633-59.51337c.65599-2.50853 1.49691-3.34947 1.96005-1.96005 .44613,1.33837-.07088,3.31544-1.14891,4.39346-1.37665,1.37665-1.61808.65235-.81114-2.43341zm-21.54118-6.60315c-.12207-4.22369.97904-14.24147 2.4469-22.26175s3.99719-24.1827 5.62076-35.9165 3.97057-27.59529 5.21556-35.24777 2.23656-29.35768 2.20352-48.23379c-.03526-20.14558.50792-31.25542 1.31521-26.89961 1.8634,10.05417.50261,63.48765-2.05515,80.69884-1.13723,7.65248-3.82084,26.01842-5.96357,40.81321-6.59837,45.55936-8.52761,55.89332-8.78323,47.04737zm112.0144,4.89671c-.6306-1.02033-.31172-1.85514.70861-1.85514s2.37108.83481 3.00168,1.85514 .31172,1.85515-.70861,1.85515-2.37108-.83482-3.00168-1.85515zm-88.11943-4.52401c0-.78766 3.75667-16.83629 8.34815-35.6636s8.34817-37.47352 8.34817-41.43596 .7554-7.67133 1.67866-8.24194c3.46019-2.1385-1.42252,25.34621-11.35077,63.89347-4.95509,19.23853-7.02421,25.55649-7.02421,21.44803zm91.82972-1.04143c-2.44645-1.05127-2.76242-1.62909-.92757-1.69634 1.5305-.0561 4.03494.70726 5.56544,1.69634 3.39115,2.19153.4621,2.19153-4.63787,0zm1.85515-5.56543c-2.44646-1.05128-2.76242-1.6291-.92757-1.69635 1.53049-.0561 4.03494.70726 5.56543,1.69635 3.39116,2.19152.4621,2.19152-4.63786,0zm7.5298-2.84171c-1.9806-1.49805-2.70893-2.72373-1.61851-2.72373s3.02181,1.25222 4.29201,2.78272c2.88883,3.48085 1.98007,3.46079-2.6735-.05899zm-148.57035-9.49097c-.66895-3.9305-2.8098-15.37602-4.75748-25.43449s-3.45627-19.65885-3.35244-21.33418c.26059-4.20513 6.92207,25.80165 8.99566,40.52119 1.82847,12.97956 1.1157,18.00712-.88574,6.24748zm11.4123-11.26281c-.63774-4.65291-1.0192-13.14352-.84769-18.868 .24152-8.06039.44913-8.73429.92038-2.98758 1.724,21.02356 2.8728,27.40951 4.47542,24.87787 1.36187-2.1513 1.66116-2.07455 1.68453.4319 .01562,1.67642-1.11943,3.48849-2.52235,4.02683-1.84665.70863-2.8708-1.35637-3.71029-7.48102zm135.19369,6.89918c-2.33867-1.00497-2.68158-1.59437-.92758-1.59437 1.5305,0 4.45235.71746 6.49301,1.59437 2.33868,1.00496 2.68158,1.59436.92758,1.59436-1.5305,0-4.45235-.71746-6.49301-1.59436zm8.34815-3.7103c-1.67202-1.08054-1.90083-1.80967-.57327-1.82674 1.21519-.01562 2.72539.80641 3.35599,1.82674 1.42346,2.30322.78124,2.30322-2.78272,0zm1.85515-12.05844c-2.55083-1.45819-3.75391-2.68084-2.67351-2.71698s3.58485,1.15993 5.56544,2.65798c4.58032,3.46438 3.11735,3.49422-2.89193.059zm-138.24982-56.2074c.02434-31.23715.60973-48.99614 1.41806-43.01899 2.16716,16.02508 1.3867,93.37116-.96588,95.72376-.2715.27148-.47498-23.44567-.45218-52.70477zm-9.82746,29.10292c-.18392-3.68382-.73902-10.77975-1.23358-15.76874l-.89917-9.07087 1.90195,7.42059c1.04606,4.08132 1.60117,11.17725 1.23356,15.76874-.58944,7.36214-.70787,7.55706-1.00276,1.65028zm-9.10486-7.21572c0-4.59149.36179-6.46982.80397-4.17408s.44219,6.05241 0,8.34816-.80397.4174-.80397-4.17408zm-10.29446,0c-.71006-2.55083-1.21855-7.14231-1.12999-10.2033 .14658-5.06654.31569-4.90486 1.88646,1.80353 1.96037,8.37237 1.29439,15.76741-.75647,8.39977zm7.09081-19.56335c-.70963-4.73214-.87283-9.02129-.36266-9.53146s1.50818,2.94417 2.21781,7.67632 .87281,9.02127.36264,9.53144-1.50818-2.94417-2.21779-7.6763zm69.73407-8.72763c.72688-7.39739.87741-43.08576.3345-79.30748s-.27052-67.67736.60534-69.90144c.92716-2.35436 1.57453,26.32231 1.54956,68.64039-.04905,83.13092-.32092,94.01834-2.34783,94.01834-.80475,0-.86845-6.05241-.14157-13.44981zm-37.27202-15.44605c.05957-15.22735-.79065-35.52578-1.88939-45.10763-1.99749-17.41965-1.4788-25.29768.78383-11.90525 3.58071,21.194 4.81025,80.63775 1.73564,83.91249-.40611.43257-.68965-11.67226-.63008-26.89961zm106.16442,25.91989c.61646-.61644 2.21651-.68234 3.5557-.14644 1.47991.5922 1.04033,1.03179-1.12082,1.1208-1.95562.08055-3.05133-.35789-2.43488-.97436zm-160.35607-15.97228c-1.67703-6.41391-2.75992-11.96009-2.4064-12.32485 1.00358-1.03545 6.78976,19.98387 6.08401,22.10115-.34566,1.03693-2.00058-3.3624-3.67761-9.7763zm74.07429-15.37195c.62314-10.2033 1.16987-26.2735 1.21495-35.71155s.72456-17.1601 1.50996-17.1601c2.30505,0 1.36778,38.5032-1.35478,55.65437l-2.50311,15.76874 1.13298-18.55146zm123.38469-26.16529c.61647-.61644 2.21651-.68234 3.55571-.14644 1.4799.5922 1.04033,1.03179-1.12083,1.1208-1.95562.08055-3.05132-.35789-2.43488-.97436zm-186.75347-7.55846c-1.14255-5.48896-4.78754-36.72738-4.81375-41.25504-.00839-1.44547.43425-2.17864.98363-1.62926s2.1378,11.33241 3.52983,23.96228c2.44341,22.16922 2.5645,29.79971.30029,18.92202zm186.25105,1.2587c-3.72835-1.19402-3.91026-1.49599-.92758-1.53982 2.04066-.03 5.37993.66291 7.42059,1.53982 4.72732,2.03141-.14996,2.03141-6.49301,0zm1.85514-5.56543c-3.82076-1.22362-3.98418-1.51288-.92757-1.64183 2.04066-.08608 4.96251.65274 6.49301,1.64183 3.25047,2.10061.99376,2.10061-5.56544,0zm-183.04218-17.62276c-1.191-8.16201-1.89006-15.11545-1.55343-15.45207 1.22069-1.22069 4.88286,20.16746 4.30853,25.16315-.32837,2.85627-1.54918-1.44679-2.7551-9.71108zm174.20861,8.92754c1.77368-.46433 5.11295-.48117 7.42058-.03744s.85645.82365-3.22487.84424-5.9694-.34248-4.19571-.8068zm3.77056-9.12192c.61647-.61645 2.21651-.68234 3.55571-.14645 1.4799.5922 1.04032,1.0318-1.12083,1.12081-1.95562.08055-3.05132-.3579-2.43488-.97436zm-192.26199-9.4841c-.6455-3.86042-1.72299-9.02783-2.39442-11.48312-.80341-2.93787-.54603-4.04714.75278-3.24443 2.04016,1.26088 5.23094,19.3308 3.68621,20.87552-.47902.47904-1.39908-2.28756-2.04457-6.14797zm194.97077,3.82262c1.25599-.50814 3.76043-.53907 5.56543-.06873 1.805.47035.77736.88613-2.28363.92393s-4.53779-.34702-3.2818-.8552zm0-5.56542c1.25599-.50816 3.76043-.53909 5.56543-.06874 1.805.47036.77736.88614-2.28363.92395s-4.53779-.34703-3.2818-.85521zm-157.58404-6.20372c-.44926-3.06099-.12659-5.56544.71702-5.56544s1.53385,2.50445 1.53385,5.56544-.32265,5.56544-.71702,5.56544-1.08459-2.50445-1.53385-5.56544zm-12.45938-23.10756c-2.4469-8.72366-4.01587-16.29422-3.48664-16.82345 1.28976-1.28976 9.53388,27.88955 8.63858,30.57546-.38668,1.16005-2.70506-5.02835-5.15194-13.75201zm11.21515,13.46381c-.11835-1.73291-2.36323-9.95049-4.98861-18.2613s-4.38462-15.49939-3.90939-15.97461c1.46037-1.46038 10.84617,30.78132 9.95238,34.18804-.7756,2.95631-.85547,2.95994-1.05438.04787zm155.15328.99454c1.27541-.51464 3.36245-.51464 4.63786,0s.2319.93571-2.31893.93571-3.59435-.42107-2.31893-.93571zm-148.8361-8.51089c-3.18213-9.5614-6.37758-22.57115-5.70828-23.24043 .44631-.44631 2.17026,4.07844 3.83099,10.05501s3.35358,11.91001 3.76186,13.18542 .32493,2.31893-.18523,2.31893-1.27488-1.04352-1.69934-2.31893zm20.51474-14.57564c-2.81473-8.38667-6.33977-46.62716-4.07167-44.17065 .39253.42514 1.26354,7.0341 1.93558,14.68658s1.94809,17.67026 2.83563,22.26175c1.54905,8.01362 1.10495,12.59881-.69954,7.22232zm5.80715-.38402c-.54822-1.42859-1.45195-10.43886-2.00835-20.02282-1.21808-20.98249.04406-18.28127 2.25979,4.83636 1.61613,16.86169 1.56549,19.9213-.25144,15.18646zm-52.0241-.65449c-.68022-.68021-1.18386-2.97596-1.11917-5.10165 .10812-3.5537.26069-3.50712 1.89499.57853 1.81677,4.54181 1.43991,6.73887-.77582,4.52312zm95.23082-7.08649c0-1.18117 12.82555-6.52985 15.53151-6.47716 1.15082.0224-1.54675,1.69203-5.99457,3.71029-8.62621,3.91424-9.53694,4.17846-9.53694,2.76687zm-39.65375-10.46009c-1.30225-6.51132-1.55852-15.637-.4059-14.45468 1.10155,1.12994 3.35447,20.25201 2.38605,20.25201-.45138,0-1.34244-2.6088-1.98015-5.79733zm40.73206,2.12182c1.0012-1.0012 4.71613-2.29171 8.2554-2.86781l6.43503-1.04745-7.42058,2.83988c-8.77059,3.35653-9.68648,3.49201-7.26985,1.07538zm-59.3829-12.22574c-.68235-2.71874-.82325-5.36057-.31309-5.87074s1.48588,1.29685 2.16824,4.01559 .82324,5.36057.31308,5.87074-1.48587-1.29685-2.16823-4.01559zm-23.66809,349.05843c-.03776-6.54497.45414-12.74582 1.09309-13.77965 2.7488-4.44766 1.26123-33.44848-2.53668-49.45383-4.653-19.60889-12.66265-44.81889-15.9141-50.08894-1.25904-2.04066-3.25755-6.76757-4.44117-10.50424s-4.19986-8.84177-6.70277-11.34468-7.14602-10.29825-10.31802-17.32296-8.07085-17.78109-10.88633-23.90307c-5.85981-12.74159-10.03626-24.93901-8.92106-26.05421 .41863-.41863 2.26992,3.43464 4.11399,8.56283s3.61633,9.06052 3.93833,8.7385-2.77483-10.44926-6.88189-22.50498-8.67845-29.57276-10.15863-38.92676c-3.20065-20.22632-9.54077-41.94337-18.32721-62.77679-3.52565-8.35965-6.07362-15.53601-5.66217-15.94747s1.66331.96192 2.78187,3.05197c1.19924,2.24079 3.15341,3.37045 4.7624,2.75302 2.95462-1.13379 3.47853-.0948 12.28327,24.35931 2.93595,8.15426 5.36347,16.91983 5.3945,19.47903 .04937,4.07212.2938,4.24544 1.95768,1.38811 2.18759-3.75669-1.56765-20.67912-7.63029-34.38472-2.03749-4.60609-3.39596-8.68329-3.01882-9.06043 1.5537-1.5537 4.9043,4.8586 9.19206,17.59148 2.502,7.42998 4.9361,13.89602 5.40909,14.36901 2.29725,2.29727-.50245-14.28003-3.93183-23.28082-2.13817-5.61181-3.888-10.99637-3.88851-11.96569-.00184-3.47881 3.23903,1.80954 6.53306,10.66044 4.09132,10.99319 7.80926,9.00794 3.97458-2.12229-1.4597-4.23683-1.99849-7.70333-1.19733-7.70333s2.35156,2.56706 3.4453,5.70459c2.22122,6.37179 5.87899,5.89836 4.67261-.60479-.42568-2.29472-.27775-3.12871.32877-1.8533 1.63329,3.43464 5.09191,2.81699 3.7537-.67034-.81756-2.1305-.34873-2.6829 1.63193-1.92285 4.20899,1.61514 12.82978-6.7978 13.2739-12.95388 .21121-2.92782.45186-5.82169.53475-6.43082s1.75168-2.95344 3.70842-5.20958c3.368-3.88333 3.66614-3.9232 5.59092-.74764 1.69514,2.79666 1.84131,2.50613.87905-1.74722-1.39225-6.15396.50463-6.72783 3.06603-.92757 1.52809,3.46038 1.6964,2.98457.98442-2.78272-.47236-3.82624-.07651-6.9568.87967-6.9568s1.75129,1.87834 1.76692,4.17408c.02096,3.07946.45061,3.50759 1.6384,1.63257 1.30833-2.06531 1.95518-1.92471 3.45225.75039 1.76912,3.16127 7.95688,2.7885 7.79489-.46959-.086-1.72987-16.55178-9.87505-19.87074-9.82954-1.27542.01749-3.77986,1.59797-5.56544,3.51217-23.60623,25.30673-27.70872,28.05711-41.85014,28.05711-4.46209,0-12.21096-1.24319-17.21969-2.76264s-11.23556-2.77167-13.8374-2.78272c-9.95061-.04224-12.33926,9.45289-4.23049,16.81664l4.9525,4.49746-3.09735-4.58686c-1.70352-2.52277-3.09733-5.33814-3.09733-6.25638 0-3.31431 5.8443,3.2759 8.66242,9.76799 1.58543,3.65238 3.25753,5.65376 3.71578,4.44752s-.53131-4.83179-2.19902-8.05677c-3.09431-5.98373-2.86635-9.37335.34296-5.09985 6.98412,9.29999 19.40071,54.08114 25.8601,93.2659 4.1049,24.90164 14.85964,56.44561 28.46259,83.48156 6.16047,12.24396 11.2043,22.75895 11.20849,23.36662 .02238,3.23361-10.19339.04871-12.7462-3.97378l-2.88863-4.55167 4.3474,3.71029c4.21875,3.60048 4.19339,3.40835-.85713-6.49301-2.86249-5.61182-6.72557-12.41922-8.58461-15.12755-4.54665-6.62376-4.26342-11.15169.33021-5.27906 4.92543,6.29679 4.62562,3.53814-.77334-7.11622-8.09203-15.96886-17.21119-45.34387-21.40313-68.94476-5.93654-33.42303-9.85186-51.33354-10.68379-48.87277-.39861,1.17905.57075,7.14324 2.15416,13.25379 3.44721,13.30325 3.48606,13.95146.73417,12.2507-1.54072-.95223-1.80194.38839-.92757,4.76026 .66945,3.34719 1.22994,7.85977 1.24556,10.02798 .02365,3.28119.35307,3.47561 1.96469,1.15946 1.40809-2.02365 1.60593-.61452.72525,5.16582-.68164,4.47402-.40446,8.93414.63411,10.2033 1.01482,1.24011 1.68091,6.42884 1.48018,11.5305-.43279,11.0006 7.26182,37.56392 15.59692,53.84356 7.62548,14.89369 11.74038,21.99906 13.48969,23.29331 .79981.59173 1.00224,2.26136.44985,3.71029-.55795,1.46356 4.31405,10.14848 10.96209,19.54121 6.58154,9.29875 14.63879,22.88343 17.90498,30.18814s6.24811,12.97179 6.62643,12.59345c1.19214-1.19213-14.2309-36.7293-18.96226-43.69211-5.2768-7.76551-5.57121-9.32901-1.6483-8.75325 3.25671.47798 10.24215,11.06945 11.07526,16.79256 .30356,2.08537 3.18271,10.44365 6.39812,18.57398s5.42753,16.38331 4.91584,18.34001 .46137,7.40945 2.16238,12.11724c2.39343,6.62416 3.09297,15.16618 3.09379,37.77813 .00059,16.0702.58498,29.21855 1.29865,29.21855s1.2667-5.35498 1.22893-11.89993zm-62.46989-175.58347c-2.39809-6.18448-3.93797-11.66671-3.42195-12.18274s1.96501,2.24829 3.22001,6.14289 2.87822,7.91591 3.6072,8.93624c2.2827,3.19508 3.70087,8.34815 2.29747,8.34815-.73842,0-3.30465-5.06004-5.70274-11.24454zm123.86305,67.3627c5.44656-17.73259 6.62384-28.31019 1.39372-12.52223-4.47072,13.49557-7.22218,25.04447-5.96669,25.04447 .39973,0 2.45757-5.63501 4.57297-12.52224zm-112.32081-22.72553c-4.7493-7.14231-8.95149-12.98602-9.33816-12.98602-1.25428,0 4.48012,10.00326 10.36884,18.08767 9.12656,12.52954 8.44282,9.14518-1.03068-5.10165zm-9.9459-24.1169c-2.08214-4.08132-4.20311-7.42058-4.71328-7.42058s.77599,3.33926 2.85813,7.42058 4.20311,7.42059 4.71328,7.42059-.77599-3.33927-2.85813-7.42059zm-7.19038-4.205c-1.83218-1.81853-2.04526-1.60544-1.03851,1.03851 .69666,1.82958 1.73401,2.85919 2.30517,2.28801s.00119-2.0681-1.26666-3.32652zm-3.71404-8.1781c-2.18692-3.76077-2.71502-2.55704-.92484,2.10808 .63622,1.65795 1.54754,2.62366 2.02519,2.14602s-.01751-2.39199-1.10034-4.2541zm.76701-12.66137c-2.33082-7.14231-5.67866-19.24713-7.43965-26.89961-4.45966-19.37961-6.60899-25.3704-5.32466-14.84117 1.79812,14.74103 14.34317,57.43257 16.29354,55.44788 .38973-.39659-1.19842-6.56478-3.52923-13.7071zm-3.77619,2.78272c-.6965-2.19445-1.68375-3.57249-2.19391-3.06232s-.35773,2.72302.33877,4.91747 1.68375,3.57249 2.19391,3.06233 .35773-2.72302-.33877-4.91748zm27.12607-3.10737c-2.18692-3.76077-2.71502-2.55704-.92485,2.10808 .63622,1.65794 1.54754,2.62366 2.02519,2.14601s-.01751-2.39198-1.10034-4.25409zm-34.77855-22.63277c-.65188-3.25938-1.57194-5.53947-2.04456-5.06683s-.28306,3.48316.4213,6.69008c1.67104,7.60821 3.1698,6.10946 1.62325-1.62325zm-3.28515-12.71549c-.61646-.61645-1.05491.47926-.97436,2.43488 .08901,2.16115.5286,2.60073 1.1208,1.12082 .5359-1.33919.47-2.93923-.14644-3.5557zm-4.8761-22.09232c-2.17662-9.04233-6.35536-21.44949-9.28604-27.57147-5.29789-11.06693-18.74538-27.36457-24.06159-29.1614-1.5305-.5173-2.20467-1.56331-1.49818-2.32447s4.04578.5346 7.42058,2.87948c6.02114,4.18356 6.06985,4.18735 2.60201.20238-1.94371-2.23357-2.64755-4.06103-1.56411-4.06103 2.26129,0 15.41168,15.35239 19.06875,22.26174 1.35014,2.55082 4.37647,10.06416 6.7252,16.69631s4.28802,10.62883 4.30954,8.88153c.06309-5.12303-7.39856-23.55308-14.3105-35.34653-7.74861-13.22098-6.69212-16.54869 1.26862-3.9959 6.46043,10.18707 7.42481,9.6547 1.95013-1.07657-4.22148-8.27479-4.57765-10.03075-1.67006-8.23377 1.47093.90909 1.48931.23155.06588-2.42816-3.45578-6.45719-21.34178-8.1519-28.11874-2.66426l-4.16191,3.37011 13.27984,14.71755c13.73238,15.21909 20.16048,26.5729 24.08721,42.54474 4.67946,19.0335 6.06078,23.54042 6.94415,22.65708 .49872-.49872-.87413-8.30504-3.05077-17.34736zm4.8761,1.68572c-.61646-.61645-1.05491.47926-.97436,2.43488 .08901,2.16115.5286,2.60072 1.1208,1.12082 .5359-1.33919.47-2.93924-.14644-3.5557zm3.71029-25.97204c-.61646-.61645-1.05491.47925-.97436,2.43487 .08901,2.16116.5286,2.60073 1.12081,1.12083 .5359-1.33918.47-2.93924-.14645-3.5557zm14.84117-5.56544c-.61646-.61645-1.05491.47926-.97436,2.43488 .08901,2.16115.52861,2.60073 1.12081,1.12082 .5359-1.33917.47-2.93924-.14644-3.5557zm-4.60468-18.72748c-4.48808-14.77601-11.28645-30.69798-12.56255-29.42188-.49237.49237 1.53599,6.61416 4.50745,13.60399s6.54586,17.17786 7.9431,22.64006 2.8536,8.99173 3.23639,7.84339-1.0232-7.74783-3.1244-14.66556zm-12.986-3.43376c-2.18692-3.76078-2.71502-2.55705-.92485,2.10807 .63622,1.65794 1.54754,2.62366 2.02519,2.14601s-.01751-2.39198-1.10034-4.25408zm-2.81593-9.37622c-.61647-.61645-1.05491.47925-.97436,2.43488 .08901,2.16114.52861,2.60073 1.12081,1.12081 .5359-1.33918.47-2.93924-.14644-3.55569zm15.87548-41.03207c3.68603-9.41748 3.62705-14.84768-.24371-22.43498-2.11309-4.14201-3.0061-7.53093-1.98449-7.53093s2.38132,2.08704 3.02155,4.63787 1.8626,4.63786 2.71642,4.63786 1.8153,3.96538 2.13663,8.81194l.58424,8.81195 2.22994-10.20331 2.22994-10.2033-.77068,11.13088c-.42388,6.12198-1.28456,13.21791-1.91262,15.76874-.98686,4.00816-.85402,4.18607.97842,1.31029 1.16618-1.83016 2.54253-5.58683 3.05856-8.34816s1.61489-8.35984 2.44191-12.44116l1.50369-7.42059 .20325,8.36041c.11179,4.59822-.57328,11.06804-1.52237,14.37738-1.92423,6.70935.69774,8.41807 2.82785,1.84289 .74375-2.29574 1.99094-9.18297 2.77159-15.30495l1.41934-11.13087-.38635,13.41577c-.42513,14.76174 1.88742,15.42009 4.26826,1.21511l1.51942-9.06545 .2182,7.99386c.26579,9.73739 3.83069,8.75202 4.14798-1.14654 .2169-6.76636.23456-6.78151 1.49339-1.28188l1.27387,5.56544 1.53409-4.55134c2.39366-7.1015 6.14039-9.76508 15.16719-10.78253 6.1154-.6893 8.07863-1.62708 7.35484-3.51323-.78068-2.03444-.21952-2.16202 2.68121-.60959 2.01771,1.07984 3.66855,3.08398 3.66855,4.45364s1.39301,3.63603 3.09559,5.03638c2.79702,2.30051 2.98849,2.00928 1.98508-3.01935-.61081-3.06099-1.7283-7.16331-2.4833-9.11627-.95848-2.47926-.71924-3.14694.79276-2.21247 1.19102.7361 2.69181,4.62971 3.33509,8.65249s2.00691,7.31412 3.03034,7.31412c1.75391,0 1.29446-5.28521-1.45147-16.69631l-1.11603-4.63787 2.83323,4.63787c1.55829,2.55083 2.86284,6.26575 2.89898,8.2554 .04584,2.52187.65451,3.02876 2.0097,1.67357s1.28133-3.3983-.24388-6.74574c-2.65473-5.82652-1.09435-10.96682 2.86757-9.44649 1.69383.64998 2.87585.07199 2.90935-1.42264 .03744-1.67088.69227-1.4257 1.94733.72909 1.04,1.78558 2.85121,3.2465 4.02491,3.2465 1.55734,0 1.53244-.60155-.09218-2.22617-3.94109-3.94109-2.36687-5.89286 1.80299-2.23543 2.21607,1.94372 3.55819,2.69922 2.98254,1.67888-1.89605-3.36068 1.26981-16.69631 3.96367-16.69631 2.55665,0 5.34311-5.02739 5.59054-10.0866 .08561-1.75048-1.62157-1.01937-4.97126,2.12897-2.80591,2.63724-8.1613,6.40686-11.90087,8.37693-5.07416,2.67315-6.37573,4.25105-5.13005,6.21918 1.87637,2.96463 2.33067,6.64304.60765,4.92001-.61509-.61508-3.30342-.28755-5.97409.72783-3.90194,1.48352-5.32208,1.2084-7.22984-1.40059-2.83418-3.87599-3.10488-8.10303-.51892-8.10303 1.02033,0 1.85515,1.62036 1.85515,3.60081s.83481,4.11675 1.85515,4.74735c2.34521,1.44943 2.32466.99747-.30388-6.67997-3.68708-10.76921-8.19184-11.00778-14.51976-.76899-5.09056,8.2367-11.69439,9.33885-21.93914,3.66156-9.11055-5.04877-11.8126-4.24237-17.99605,5.37069-5.32885,8.2845-12.64699,11.36689-22.06436,9.29349-8.78367-1.93388-19.96645-.68736-20.96415,2.33681-.37791,1.1455 1.01666,2.52827 3.09904,3.07283s3.78615.21753 3.78615-.72671c0-1.28377 8.26787-.54665 10.5163.93759 .17214.11364.92,2.62516 1.66191,5.58117 .9442,3.76197.72744,4.99045-.72239,4.0944-1.25994-.77869-2.57118.74798-3.34741,3.89738-.70186,2.84764-3.43478,8.02825-6.07319,11.51247-3.04507,4.02124-3.78459,6.00166-2.0248,5.42241 4.02056-1.3234 11.08897-12.4635 9.89021-15.5874-1.03601-2.69984 2.12344-3.83017 3.55431-1.27161 .42796.76525.52375.34784.21282-.92757s.24332-2.31893 1.23161-2.31893c2.80222,0 2.10976,11.86328-.92679,15.87795-3.15816,4.17548-3.80368,10.90758-.87214,9.09579 1.08328-.66949 2.83641-3.43191 3.89586-6.13871zm3.4103-27.18319c0-1.5305.3281-2.78272.72909-2.78272s1.20961,1.25222 1.79693,2.78272 .2592,2.78272-.72911,2.78272-1.79691-1.25222-1.79691-2.78272zm24.1169-8.74569c0-.80169.88409-1.45761 1.96464-1.45761s1.44868-.83481.81808-1.85515-.21319-1.85515.92757-1.85515 1.50048-.92815.79938-2.06256-.16411-2.74895 1.1933-3.58788c3.84878-2.37868 5.78458-.00668 2.59644,3.18148-1.57296,1.57296-2.4147,4.2627-1.87054,5.9772 .70147,2.21009-.09005,3.11728-2.71974,3.11728-2.04003,0-3.70914-.65593-3.70914-1.45762zm9.32945-1.38515c-1.50094-.94923-2.10718-2.34768-1.34718-3.10767s2.79303.02943 4.51789,1.75428c3.35295,3.35296 1.34578,4.20971-3.17071,1.3534zm5.4745-2.90001c-3.58483-4.31946-1.02691-5.13347 2.80964-.89411 1.85244,2.04692 2.50608,3.72166 1.45254,3.72166s-2.97152-1.2724-4.26218-2.82755zm23.34581-5.90438c-1.00675-2.64395-.79367-2.85704 1.03851-1.0385 1.26784,1.25841 1.83783,2.75534 1.26665,3.32651s-1.6085-.45843-2.30516-2.28801zm23.07005-3.32651c0-1.5305.3281-2.78272.72909-2.78272s1.20961,1.25222 1.79693,2.78272 .2592,2.78272-.72911,2.78272-1.79691-1.25222-1.79691-2.78272zm-83.54682,52.99362c2.32761-4.34919 2.41302-5.6874.36305-5.6874-.85656,0-2.50829,2.08704-3.67054,4.63786-2.48326,5.45019.45356,6.38211 3.30748,1.04954zm-7.41322-14.00241c.03185-1.0021-2.02914,1.24935-4.57997,5.00323s-4.63358,7.91304-4.62837,9.24258c.01065,2.70592 9.11736-11.38268 9.20833-14.24581zm84.65255-24.33556c-.66023-1.72054-1.61784-2.71084-2.128-2.20068s-.38738,2.33529.27285,4.05582 1.61784,2.71084 2.128,2.20068 .38737-2.33528-.27285-4.05582zm39.70013,4.24468c0-.31828-2.71316-2.53752-6.02924-4.93165l-6.02922-4.35295 4.49745,4.93165c3.84163,4.21251 7.56101,6.35379 7.56101,4.35295zm-10.20332-3.13159c-.6306-1.02033-2.1408-1.84236-3.35599-1.82674-1.32756.01707-1.09875.74619.57328,1.82674 3.56395,2.30321 4.20617,2.30321 2.78271,0zm-98.54245-12.1548c.63351-1.65094.32252-2.39559-.72909-1.74566-1.00864.62338-1.8339,1.91896-1.8339,2.87907 0,2.6685 1.32971,2.08048 2.563-1.13341zm88.31074-.67663c-.01562-1.61552-.8878-4.18954-1.93816-5.72003-1.57684-2.29762-1.82252-2.13592-1.40927.92757 .27529,2.04066-.06804,4.61467-.76294,5.72003s-.04796,2.00974 1.43766,2.00974 2.68833-1.32179 2.67271-2.93731zm-21.46059-4.52694c-1.19271-3.10814-4.48305-4.25614-4.48305-1.56413 0,1.80481 4.13874,6.1264 5.02164,5.2435 .34713-.34712.10476-2.00284-.53859-3.67937zm-25.39807-2.85441c1.25869-1.6371 3.32236-5.22336 4.58593-7.96946 1.73063-3.76119 2.88401-4.50605 4.67536-3.01935 1.76063,1.46118 2.378,1.22412 2.378-.91309 0-1.74569 1.95987-3.11867 4.95849-3.47366 4.27444-.50603 5.03644-1.55432 5.52362-7.59887l.56514-7.01187-4.53775,3.30157c-5.03048,3.66007-6.21262,7.07921-1.87163,5.41342 1.53049-.58731 2.78272-.35658 2.78272.51272s-1.87834,2.18044-4.17408,2.91364c-9.54686,3.04899-10.66789,2.90402-10.63869-1.37577 .02299-3.36779.37174-3.63119 1.82674-1.37972 1.4542,2.25022 1.80378,1.98396 1.82675-1.39136 .03191-4.69033-4.54808-5.71683-6.20791-1.39136-.58731,1.5305-3.18106,2.78272-5.76392,2.78272s-4.69608.83482-4.69608,1.85515 .83481,1.85515 1.85514,1.85515 1.85515.83481 1.85515,1.85515-2.08704,1.85515-4.63786,1.85515c-2.96382,0-4.63787-1.04395-4.63787-2.8922 0-1.59071.83482-2.37626 1.85515-1.74566s1.85514-.15495 1.85514-1.74566c0-3.66318-2.57411-3.71382-5.56544-.10948-1.2702,1.53049-3.45945,2.78272-4.86502,2.78272s-2.55556,1.22602-2.55556,2.72449c0,1.79319 1.10975,2.334 3.2465,1.58211 2.21157-.77822 2.65512-.53043 1.39136.77729-1.02033,1.05582-3.84854,2.52369-6.2849,3.26192-4.01532,1.21666-4.34232.8849-3.4953-3.54606 1.14197-5.97389-.9733-7.68564-4.38697-3.55006-1.97527,2.39298-2.02129,3.2349-.21021,3.84446 1.27541.42927 2.31893,2.75002 2.31893,5.15723 0,3.20693.88752,4.20583 3.32056,3.73727 1.8263-.35171 6.62649,1.35581 10.66707,3.7945 7.7629,4.68526 12.96202,4.41282 17.04143-.893zm1.43599-9.46956c-.6306-1.02033-.26247-1.85515.81808-1.85515s1.96464.83482 1.96464,1.85515-.36814,1.85515-.81808,1.85515-1.33404-.83482-1.96464-1.85515zm25.03569-1.32146c-2.02138-3.15243-2.07373-3.14838-1.05886.08183 .58719,1.86903 1.13355,4.37348 1.2141,5.56544 .10571,1.56418.40034,1.54141 1.05886-.08183 .50184-1.23697-.04452-3.74142-1.2141-5.56544zm7.42936,3.53118c0-.82532-1.31413-3.12106-2.92029-5.10165s-2.5697-2.76626-2.1412-1.74593 1.29903,3.31607 1.93449,5.10165c1.18709,3.33553 3.127,4.41866 3.127,1.74593zm-72.71806-3.19547c-2.00779-2.00779-8.90836-2.44498-8.90836-.5644 0,1.07091 1.22549,1.47685 2.7233.90208s3.25105-.19113 3.89607.85252 1.6457,1.4246 2.22375.84655 .60741-1.49459.06525-2.03675zm64.67096-14.3192c-.51464-1.27541-.93572-.23189-.93572,2.31893s.42108,3.59434.93572,2.31893 .51463-3.36245 0-4.63786zm-48.53484,2.31893c-.6306-1.02033.12875-1.85515 1.68744-1.85515 1.75692,0 2.42815-1.05758 1.76615-2.78272-1.18013-3.07535-5.42921-3.73433-7.06043-1.09499-1.37431,2.22369.73749,7.58799 2.98723,7.58799 .97137,0 1.2502-.83482.6196-1.85515zm19.09087-5.80234c1.06161,3.18484 4.09845.53003 4.09845-3.58288 0-1.98044.83481-3.60081 1.85514-3.60081s1.86793,1.04352 1.88355,2.31893c.01894,1.54595.62786,1.39136 1.82674-.46379 1.13736-1.75993 1.80877-1.95179 1.82675-.52201 .01562,1.24339 1.28062,1.78019 2.81112,1.19288s2.78272-2.10369 2.78272-3.36975c0-3.26421-10.42952-3.16422-13.16031.12617-1.56137,1.88134-3.99293,2.3597-7.77364,1.52932-5.71967-1.25625-8.79122,1.10701-8.58958,6.60883 .06754,1.84296.64794,1.52971 1.71862-.92757 1.57671-3.61861 1.64717-3.6088 2.85132.39731 1.13116,3.76326 1.48319,3.85907 4.19937,1.1429 1.97105-1.97106 3.201-2.25579 3.66975-.84954zm-2.58882-13.21291c-.42596-2.29574-.27823-3.13056.32827-1.85515 1.84986,3.89003 4.50385,2.58807 4.50385-2.20945 0-5.66812-2.57626-7.42152-5.58239-3.79935-1.26087,1.51926-3.81064,2.76229-5.66616,2.76229-4.71221,0-5.9567,2.8336-2.50322,5.69973 2.33953,1.94165 3.18647,1.95226 4.35926.05465 1.1186-1.80991 1.71664-1.67491 2.58311.58308 1.66082,4.32802 2.86944,3.57261 1.97728-1.23581zm14.10785-8.81194c0-1.02033-1.25222-1.85515-2.78272-1.85515s-2.78272.83482-2.78272,1.85515 1.25223,1.85515 2.78272,1.85515 2.78272-.83482 2.78272-1.85515zm-16.69631-5.8164c0-.81825 1.25222-1.00721 2.78272-.4199 1.76209.67618 2.78272-.02559 2.78272-1.91337 0-1.63966-.79555-2.9812-1.76787-2.9812-3.22179,0-11.11564,4.23048-10.31401,5.52752 1.09904,1.7783 6.51644,1.60118 6.51644-.21305zm10.39655-4.81203c-1.88579-1.88578-3.44176.95334-1.89451,3.45684 1.1688,1.89117 1.60578,1.89263 2.23415.00748 .42965-1.28893.27681-2.84787-.33964-3.46432zm-8.54141-5.22929c0-2.19165-3.50759-2.18748-4.349.00517-.68538,1.78608-.13243,2.33412 1.66077,1.64601 1.47853-.56737 2.68823-1.3104 2.68823-1.65118z"/>
</svg>
